<svg xmlns="http://www.w3.org/2000/svg" xmlns:xlink="http://www.w3.org/1999/xlink" width="300" height="300" viewBox="2721147.085101643 266557.18039006565 3633.2204230260104 4164.534654340707" preserveAspectRatio="xMinYMin meet"><g transform="matrix(1,0,0,-1,0,537278.895434472)"><path fill-rule="evenodd" fill="#66cc99" stroke="#555555" stroke-width="27.763564362271378" opacity="0.6" d="M 2721301.327125878,268155.08773638634 L 2721478.3376927436,268386.07566040213 L 2721635.9377122056,268592.0551701152 L 2721822.1021691216,268834.98717922805 L 2721907.2433141842,268945.824787368 L 2721971.7888170076,269024.691910777 L 2721985.5290472494,269042.60451999254 L 2722341.615107057,269509.3932479309 L 2722469.000634292,269676.9183261486 L 2722512.0002896804,269736.54259706987 L 2722626.765684852,269895.3011241823 L 2722673.9533205875,269964.52926711214 L 2722764.0279466333,270097.0233493334 L 2722947.7527377815,270345.72136306006 L 2723120.2519587944,270567.4730201715 L 2723127.3926574835,270562.9531697907 L 2723184.8649021997,270524.6183055485 L 2723456.1199023384,270328.444908164 L 2723709.551653503,270156.51253746083 L 2723731.2192284046,270134.9430117638 L 2723939.647823875,269987.5138844709 L 2724163.558448854,269828.53284900717 L 2724626.063500434,269507.01685307734 L 2724603.6706990027,269478.99774898175 L 2724473.573256592,269281.49312949204 L 2724340.843539773,269087.55329859845 L 2724199.74757253,268883.15374397824 L 2724038.1679167724,268643.14136831113 L 2723958.810425898,268526.64170291607 L 2723882.688202232,268414.25018160854 L 2723723.420795178,268180.8708933059 L 2723555.0683003487,267933.00151915324 L 2723475.5596903297,267812.12550365843 L 2723404.5504468526,267706.4519338282 L 2723865.4723224086,267391.7971836718 L 2723717.4855008274,267174.06995332666 L 2723570.8954236982,266956.38636370125 L 2723557.3904596996,266939.937879611 L 2723484.799592339,266830.9357687603 L 2723417.2590770954,266730.83500981284 L 2723402.1635044008,266711.4224143005 L 2722935.1559354994,267023.34904475557 L 2722472.7293526623,267341.61958213686 L 2722009.9214172508,267654.42000667454 L 2721638.38053777,267905.13712277677 L 2721548.9512029416,267971.65816754143 L 2721445.171069189,268040.29350417055 L 2721334.979191171,268117.11635957455 L 2721301.327125878,268155.08773638634 z" /></g></svg>