<svg xmlns="http://www.w3.org/2000/svg" xmlns:xlink="http://www.w3.org/1999/xlink" width="300" height="300" viewBox="2721039.150147308 266449.1875299216 3849.1538731167093 4380.4940424243105" preserveAspectRatio="xMinYMin meet"><g transform="matrix(1,0,0,-1,0,537278.8691022675)"><path fill-rule="evenodd" fill="#66cc99" stroke="#555555" stroke-width="29.20329361616207" opacity="0.6" d="M 2721226.488144701,268088.76182217186 L 2721220.3282381576,268096.44321244734 L 2721214.953601293,268104.69315085676 L 2721210.4163402463,268113.431655728 L 2721206.76044295,268122.5740088247 L 2721204.0213526716,268132.03157667455 L 2721202.2256243997,268141.7126698547 L 2721201.390667398,268151.5234319042 L 2721201.524576424,268161.368749246 L 2721202.626053255,268171.15317329543 L 2721204.68441927,268180.78184581746 L 2721207.6797189796,268190.16141856014 L 2721211.5829134914,268199.2009582493 L 2721216.356162035,268207.8128281699 L 2721221.953188822,268215.91353778896 L 2721398.9408486723,268446.87156955554 L 2721556.517983524,268652.821169623 L 2721742.72837465,268895.8131666934 L 2721742.798795098,268895.90495059645 L 2721827.9399401606,269006.7425587364 L 2721829.8561721537,269009.15906125173 L 2721893.403183154,269086.80614338146 L 2721906.1027035043,269103.3620191751 L 2722262.0609410405,269569.9831865088 L 2722388.633178549,269736.43870503624 L 2722430.892149114,269795.03592603887 L 2722430.9581690673,269795.127362039 L 2722544.913913231,269952.7658738254 L 2722591.28878589,270020.80162647064 L 2722681.3291005087,270153.2452387507 L 2722683.5955747124,270156.44248385425 L 2722867.3203658606,270405.1404975809 L 2722868.821951086,270407.12112618366 L 2723041.321172099,270628.8727832951 L 2723047.725760672,270636.32031921734 L 2723054.8301149756,270643.1035850996 L 2723062.5656889696,270649.15713290905 L 2723070.85784632,270654.4225552644 L 2723079.6265805224,270658.84904897696 L 2723088.787286843,270662.39390522323 L 2723098.251578623,270665.0229216185 L 2723107.928140072,270666.7107322174 L 2723117.7236073273,270667.4410522561 L 2723127.5434692665,270667.2068352747 L 2723137.292979398,270666.0103411052 L 2723146.8780700155,270663.8631140673 L 2723156.2062598076,270660.78587158356 L 2723165.187546158,270656.8083042885 L 2723173.735273534,270651.96878955944 L 2723180.875972223,270647.4489391786 L 2723182.88275244,270646.1448121696 L 2723240.354997156,270607.8099479274 L 2723243.4663646603,270605.6483530462 L 2723513.5042685,270410.3551676976 L 2723765.693036274,270239.26605787274 L 2723773.1754329302,270233.66183876287 L 2723780.101798909,270227.38338466326 L 2723795.8201061394,270211.7362052595 L 2723997.3953463025,270069.1547054705 L 2723997.5411032536,270069.05141081783 L 2724221.0461758603,269910.35832567414 L 2724683.142830775,269589.12623163924 L 2724690.7754200147,269583.25573727826 L 2724697.808006014,269576.6783626726 L 2724704.175383253,269569.45509266254 L 2724709.8185139685,269561.6529007737 L 2724714.6850755475,269553.3441282447 L 2724718.7299456582,269544.60581328534 L 2724721.91562062,269535.51897678524 L 2724724.2125631343,269526.16787109507 L 2724725.599476151,269516.63919884624 L 2724726.063500335,269507.0213090518 L 2724725.6003332944,269497.4033779419 L 2724724.214269473,269487.87458212994 L 2724721.918160334,269478.5232717746 L 2724718.7332951995,269469.4361514048 L 2724714.689203859,269460.69747600344 L 2724709.8233827725,269452.3882698019 L 2724704.1809474067,269444.58557503123 L 2724684.655146305,269420.1538193487 L 2724557.083850733,269226.48421506735 L 2724556.0972312116,269225.01487161394 L 2724423.367514393,269031.07504072034 L 2724423.1402055984,269030.74433104915 L 2724282.3754708027,268826.824618383 L 2724121.121429579,268587.29591448454 L 2724120.815110471,268586.8435764033 L 2724041.532492493,268470.453827126 L 2723965.4848490474,268358.17242063204 L 2723965.287015675,268357.8814312429 L 2723806.0820381967,268124.59362286184 L 2723638.2078417772,267877.428458811 L 2723559.106185407,267757.17113021744 L 2723558.5610819277,267756.3512354626 L 2723542.918642657,267733.07268301444 L 2723921.8536804263,267474.3873917361 L 2723929.6677076016,267468.4715113176 L 2723936.865095336,267461.81912290305 L 2723943.3767079264,267454.4941271148 L 2723949.139996995,267446.56688541727 L 2723954.0996023114,267438.1135442478 L 2723958.2078835624,267429.2153035799 L 2723961.42537797,267419.957636943 L 2723963.7211793563,267410.42947039247 L 2723965.0732350205,267400.72232831543 L 2723965.4685575664,267390.9294542784 L 2723964.9033496575,267381.14491536014 L 2723963.3830404934,267371.46269857546 L 2723960.922233655,267361.97580806655 L 2723957.544566833,267352.77537173685 L 2723953.2824847656,267343.9497659064 L 2723948.1769275917,267335.58376639854 L 2723800.3111954113,267118.03469015885 L 2723653.8414390814,266900.52977472503 L 2723648.1825451176,266892.93007273856 L 2723637.8508402295,266880.346486178 L 2723568.03182114,266775.5065698772 L 2723567.6950175306,266775.00412760535 L 2723500.154502287,266674.9033686579 L 2723496.200432611,266669.44883556076 L 2723481.1048599165,266650.0362400484 L 2723474.5879416494,266642.46807513887 L 2723467.348608858,266635.58771144686 L 2723459.459071964,266629.46377877257 L 2723450.9980270024,266624.15736171784 L 2723442.0498706494,266619.7213903833 L 2723432.7038583877,266616.20011240465 L 2723423.0532142073,266613.6286515945 L 2723413.19420072,266612.03265759134 L 2723403.225158967,266611.4280500114 L 2723393.245527492,266611.82085965475 L 2723383.3548504673,266613.20716834953 L 2723373.6517847697,266615.5731480347 L 2723364.2331159026,266618.8951986914 L 2723355.192792585,266623.1401837467 L 2723346.620989642,266628.2657606022 L 2722879.6134207407,266940.19239105727 L 2722878.460450341,266940.97415803245 L 2722416.382057225,267259.0050497408 L 2721953.954813615,267571.54817411565 L 2721582.4444380878,267822.24470604095 L 2721578.6973730423,267824.90047374374 L 2721491.484393347,267889.77290668205 L 2721390.0082439496,267956.88449559466 L 2721387.9805521443,267958.2615301594 L 2721277.7886741264,268035.0843855634 L 2721268.498989767,268042.4143996187 L 2721260.140209994,268050.79044536006 L 2721226.488144701,268088.76182217186 z" /></g></svg>