<svg xmlns="http://www.w3.org/2000/svg" xmlns:xlink="http://www.w3.org/1999/xlink" width="100.0" height="100.0" viewBox="-75.16077144271648 39.96907816598083 0.01308447749596553 0.012574828503304047" preserveAspectRatio="xMinYMin meet"><g transform="matrix(1,0,0,-1,0,79.95073116046497)"><path fill-rule="evenodd" fill="#66cc99" stroke="#555555" stroke-width="0.0002616895499193106" opacity="0.6" d="M -75.14904117305994,39.98006578157045 L -75.14894583717005,39.98004851786556 L -75.14885261939142,39.98002210928441 L -75.14876239475632,39.9799868037235 L -75.14867601020046,39.979942932594966 L -75.14859427661285,39.97989090771567 L -75.14851796122402,39.97983121744146 L -75.14844778040401,39.97976442208299 L -75.14838439293791,39.97969114864611 L -75.14832839384181,39.9796120849462 L -75.14828030877737,39.97952797315161 L -75.14824058911755,39.97943960281703 L -75.14820960770949,39.97934780347192 L -75.14818765537466,39.979253436833716 L -75.14817493817891,39.979157388718995 L -75.14817157549814,39.97906056072827 L -75.14817759889773,39.97896386178274 L -75.14819295183624,39.97886819959225 L -75.14998578583625,39.97035646359225 L -75.15001089284789,39.97026093281169 L -75.15004530191521,39.97016834497148 L -75.1500886773264,39.97007960340415 L -75.1501405958896,39.969995573916094 L -75.15020055106176,39.969917076340344 L -75.15026795789073,39.969844876537884 L -75.15034215872232,39.969779678925505 L -75.1504224296167,39.9697221196032 L -75.15050798741152,39.96967276014803 L -75.15059799736282,39.96963208213514 L -75.15069158128927,39.96960048243924 L -75.15078782613998,39.96957826936251 L -75.15088579290287,39.96956565962665 L -75.15098452576596,39.96956277625846 L -75.15179496776595,39.96957915925846 L -75.15264456826607,39.969596334268545 L -75.1527553609604,39.96960474815517 L -75.1594178509604,39.9704851481552 L -75.15951258677828,39.97050234236286 L -75.15960522987194,39.970528567792584 L -75.15969492139212,39.97056358132108 L -75.15978082985211,39.97060705835489 L -75.15986215883619,39.97065859583946 L -75.15993815438271,39.970717715995725 L -75.16000811197374,39.970783870749344 L -75.16007138306631,39.9708564468116 L -75.16012738110474,39.97093477136496 L -75.16017558695835,39.9710181183004 L -75.16021555373396,39.97110571494881 L -75.16024691091899,39.971196749244086 L -75.16026936781611,39.97129037725133 L -75.16028271623831,39.97138573099059 L -75.16028683243886,39.97148192648353 L -75.16028167825841,39.97157807194828 L -75.1602673014789,39.971673276066774 L -75.15990772547892,39.973465169066735 L -75.15990653143697,39.97347102851961 L -75.15847885543691,39.980371465519625 L -75.15845378712967,39.980468054551366 L -75.15841921710977,39.98056166424533 L -75.15837548962064,39.98065136244919 L -75.15832304009456,39.980736255960686 L -75.1582623908166,39.98081549942203 L -75.1581941457239,39.98088830373784 L -75.15811898439155,39.98095394393286 L -75.15803765526569,39.98101176637113 L -75.15795096821046,39.98106119526486 L -75.1578597864435,39.98110173840798 L -75.15776501794016,39.98113299207751 L -75.15766760639208,39.981154645053756 L -75.15756852180989,39.98116648171938 L -75.15746875086411,39.981168384206505 L -75.15736928705994,39.981160333570436 L -75.14904117305994,39.98006578157045 z" /></g></svg>