<svg xmlns="http://www.w3.org/2000/svg" xmlns:xlink="http://www.w3.org/1999/xlink" width="100.0" height="100.0" viewBox="-75.182160352 39.964592848 0.002480003999991709 0.0019627039999932094" preserveAspectRatio="xMinYMin meet"><g transform="matrix(1,0,0,-1,0,79.9311484)"><path fill-rule="evenodd" fill="#66cc99" stroke="#555555" stroke-width="4.9600079999834176e-05" opacity="0.6" d="M -75.1811748,39.9646847 L -75.1814144,39.9648596 L -75.1813736,39.9648924 L -75.181789,39.9651958 L -75.1818307,39.9651623 L -75.1820685,39.965336 L -75.1815158,39.9657806 L -75.1817575,39.9659571 L -75.1816086,39.9660768 L -75.1814527,39.9662022 L -75.181211,39.9660258 L -75.1806666,39.9664637 L -75.1804253,39.9662875 L -75.1804684,39.9662528 L -75.1800537,39.9659499 L -75.1800149,39.965981 L -75.1797722,39.9658038 L -75.1800844,39.9655527 L -75.1803273,39.9657301 L -75.1802851,39.965764 L -75.1806678,39.9660434 L -75.1809431,39.9658219 L -75.1808545,39.9657572 L -75.1808601,39.9657527 L -75.1808911,39.9657278 L -75.181009,39.965633 L -75.1811281,39.9655372 L -75.1811499,39.9655197 L -75.1811543,39.9655161 L -75.1812412,39.9655795 L -75.181523,39.9653528 L -75.1811419,39.9650745 L -75.1811003,39.965108 L -75.1808635,39.9649351 L -75.1811748,39.9646847 z" /></g></svg>